<?xml version="1.0" standalone="no"?>
<!DOCTYPE svg PUBLIC "-//W3C//DTD SVG 20010904//EN"
 "http://www.w3.org/TR/2001/REC-SVG-20010904/DTD/svg10.dtd">
<svg version="1.0" xmlns="http://www.w3.org/2000/svg"
 width="1600.000000pt" height="740.000000pt" viewBox="0 0 1600.000000 740.000000"
 preserveAspectRatio="xMidYMid meet">
<metadata>
Created by potrace 1.15, written by Peter Selinger 2001-2017
</metadata>
<g transform="translate(0.000000,740.000000) scale(0.100000,-0.100000)"
fill="#000000" stroke="none">
<path d="M5936 7013 c-3 -4 -28 -6 -55 -4 -58 3 -171 -18 -171 -31 0 -5 -4 -6
-10 -3 -11 7 -123 -26 -128 -37 -2 -5 -8 -6 -13 -2 -11 7 -67 -10 -134 -40
-27 -13 -60 -26 -72 -30 -13 -4 -23 -11 -23 -14 0 -4 -11 -9 -24 -10 -13 -1
-44 -10 -70 -21 -25 -11 -46 -18 -46 -15 0 2 -18 -5 -40 -16 -22 -11 -40 -18
-40 -15 0 3 -11 -2 -25 -11 -14 -9 -25 -13 -25 -9 0 4 -7 2 -16 -6 -9 -7 -23
-13 -32 -14 -40 -3 -162 -38 -162 -46 0 -5 -3 -8 -7 -7 -15 4 -53 -13 -53 -23
0 -6 -4 -8 -9 -5 -5 3 -25 -5 -44 -18 -19 -13 -38 -22 -41 -18 -3 3 -6 1 -6
-5 0 -5 -6 -10 -12 -11 -26 -2 -88 -27 -88 -35 0 -5 -4 -5 -10 -2 -5 3 -27 1
-47 -5 -21 -6 -51 -14 -68 -17 -16 -2 -34 -8 -40 -12 -5 -5 -77 -9 -160 -10
-82 -1 -178 -6 -213 -12 -34 -5 -77 -12 -95 -14 -17 -3 -81 -8 -142 -11 -60
-4 -111 -9 -113 -13 -3 -8 -380 -5 -451 4 -59 8 -111 -11 -161 -57 -13 -13
-28 -23 -32 -23 -4 0 -15 -7 -25 -15 -10 -8 -38 -28 -63 -44 -25 -16 -49 -35
-53 -43 -4 -7 -12 -13 -18 -13 -5 0 -19 -9 -31 -20 -12 -11 -19 -20 -16 -20 4
0 -11 -18 -33 -41 -21 -22 -39 -44 -39 -49 0 -5 -8 -11 -17 -14 -10 -4 -45
-32 -78 -64 -33 -31 -64 -58 -68 -59 -32 -8 -527 -493 -527 -516 0 -8 -9 -26
-20 -39 -10 -14 -16 -28 -13 -32 3 -3 1 -6 -5 -6 -14 0 -55 -77 -47 -90 3 -5
1 -17 -4 -27 -5 -10 -16 -66 -24 -124 -8 -58 -22 -121 -31 -139 -9 -18 -16
-41 -16 -51 0 -9 -4 -19 -10 -21 -10 -3 -30 -126 -31 -188 -1 -74 -9 -157 -20
-200 -6 -25 -12 -57 -12 -72 -1 -14 -6 -24 -10 -21 -5 3 -7 -1 -6 -8 1 -8 -2
-34 -7 -59 -4 -25 -7 -48 -6 -52 1 -5 -3 -8 -9 -8 -6 0 -9 -9 -6 -20 3 -11 2
-20 -2 -20 -4 0 -13 -28 -21 -62 -7 -35 -14 -67 -16 -73 -1 -5 -18 -38 -37
-72 -19 -34 -33 -63 -31 -66 2 -2 -7 -14 -21 -27 -14 -13 -25 -29 -25 -35 0
-6 -23 -36 -50 -67 -28 -31 -50 -60 -50 -65 0 -10 -43 -49 -49 -43 -5 4 -77
-60 -152 -133 -28 -27 -75 -62 -107 -78 -31 -17 -68 -37 -82 -44 -14 -8 -34
-15 -46 -15 -11 0 -25 -5 -32 -12 -7 -7 -12 -8 -12 -4 0 10 -91 -62 -103 -81
-4 -7 -12 -13 -17 -13 -9 0 -50 -36 -50 -44 0 -2 -16 -20 -35 -41 -20 -20 -34
-39 -32 -42 3 -2 -9 -18 -25 -35 -40 -43 -37 -91 7 -98 22 -4 30 -11 31 -28 1
-12 -3 -22 -9 -22 -6 0 -8 -2 -5 -5 2 -3 -19 -31 -49 -62 -29 -32 -59 -72 -65
-90 -7 -20 -23 -37 -40 -44 -15 -6 -28 -16 -28 -22 0 -6 -3 -8 -6 -5 -5 5
-104 -48 -129 -70 -6 -5 -15 -7 -22 -5 -6 2 -17 -3 -26 -11 -8 -8 -17 -13 -20
-10 -2 3 -7 -5 -10 -18 -4 -13 -7 -27 -9 -33 -2 -11 -41 -56 -72 -86 -20 -19
-14 -25 24 -29 8 0 34 -2 58 -4 78 -7 256 46 315 93 9 8 17 11 17 7 0 -8 116
50 140 70 8 7 18 12 21 11 10 -3 109 46 109 55 0 4 4 8 10 8 17 0 150 89 150
101 0 5 4 8 8 5 5 -3 21 6 37 20 15 13 32 24 36 24 11 0 74 136 71 153 -1 4 2
7 7 7 9 0 24 32 27 55 0 6 4 21 7 35 10 39 19 102 21 138 0 17 4 32 9 32 4 0
7 10 7 23 0 31 34 85 88 137 25 24 42 38 38 30 -4 -8 4 -3 17 12 14 15 27 25
30 22 2 -3 16 10 31 28 14 18 31 38 36 45 6 7 10 15 10 19 0 3 12 21 28 39 15
17 35 45 45 61 33 56 66 99 96 129 23 22 38 54 57 120 15 50 27 100 28 112 0
11 5 19 10 16 5 -3 7 6 4 20 -3 15 -2 24 2 22 8 -5 25 42 22 58 -1 4 3 7 8 7
6 0 10 7 10 15 0 9 7 18 15 21 8 4 15 12 15 19 0 14 25 27 34 18 3 -4 6 -19 6
-34 0 -15 4 -30 8 -33 4 -3 7 -67 5 -143 -3 -190 -7 -233 -17 -233 -4 0 -6 -9
-3 -20 3 -11 1 -18 -4 -14 -5 3 -9 -10 -9 -29 0 -19 -7 -40 -15 -47 -8 -7 -15
-16 -15 -21 0 -5 -12 -27 -26 -49 -15 -22 -23 -44 -18 -51 4 -8 3 -9 -4 -5 -7
4 -12 4 -13 -1 0 -4 -2 -15 -4 -23 -3 -8 -6 -24 -7 -35 -2 -11 -9 -26 -16 -34
-8 -8 -11 -22 -9 -32 3 -11 1 -19 -5 -19 -6 0 -8 -6 -5 -13 3 -8 -3 -33 -14
-56 -10 -24 -17 -47 -14 -51 3 -5 1 -10 -3 -12 -9 -4 -118 -198 -156 -279 -14
-31 -37 -67 -49 -80 -39 -40 -64 -82 -76 -124 -11 -43 -37 -85 -51 -85 -14 0
-83 -49 -105 -74 -11 -13 -22 -23 -25 -22 -9 2 -38 -24 -159 -141 -64 -61
-133 -126 -153 -143 -21 -18 -38 -38 -38 -46 0 -8 -5 -14 -12 -14 -6 0 -8 -3
-5 -7 4 -3 -3 -17 -15 -30 -23 -25 -27 -57 -15 -138 12 -81 34 -148 46 -141
10 7 12 -15 17 -168 5 -128 4 -140 -15 -160 -31 -33 -70 -115 -66 -136 2 -11
0 -20 -6 -20 -5 0 -9 -8 -9 -18 0 -10 -7 -28 -16 -40 -8 -12 -13 -26 -10 -31
3 -4 -6 -19 -20 -32 -14 -13 -33 -37 -41 -53 -9 -16 -36 -49 -60 -73 -25 -24
-43 -43 -40 -43 3 0 -5 -12 -19 -27 -13 -14 -22 -28 -20 -30 2 -2 -10 -18 -25
-34 -23 -25 -29 -40 -29 -78 0 -40 6 -54 35 -88 19 -23 35 -45 35 -51 0 -5 9
-17 20 -27 10 -9 18 -20 17 -24 -2 -5 70 -119 83 -131 3 -3 6 -12 8 -20 2 -8
8 -20 14 -27 5 -7 25 -44 43 -83 19 -38 39 -70 45 -70 6 0 23 -13 36 -30 14
-16 28 -29 32 -28 4 1 77 -2 162 -6 85 -4 205 -9 265 -11 l111 -5 47 41 c51
44 74 101 61 148 -3 14 -7 37 -8 51 -1 14 -21 51 -46 83 -25 33 -57 78 -72
100 -15 23 -32 48 -38 55 -6 6 -8 12 -5 12 3 0 0 10 -6 22 -7 13 -14 46 -16
73 -5 68 -6 65 7 113 6 24 7 48 4 54 -5 7 -2 8 6 3 10 -6 12 -1 8 19 -3 15 -3
24 0 22 2 -3 15 17 29 44 13 27 36 60 49 72 14 13 33 30 42 39 9 8 38 32 65
53 26 21 47 45 47 53 0 7 7 16 14 19 14 6 96 107 96 119 0 6 15 25 41 53 23
24 49 78 42 86 -4 3 -2 6 4 6 13 0 45 78 38 91 -4 5 -1 9 5 9 6 0 8 4 5 10 -3
5 -2 10 4 10 11 0 27 39 22 55 -1 5 1 7 5 3 6 -7 74 85 74 101 0 3 8 13 18 22
9 8 35 36 57 62 22 26 59 68 83 94 23 25 42 50 42 55 0 4 8 17 18 28 9 11 25
29 35 40 9 11 17 25 17 31 0 5 4 8 8 5 5 -3 15 6 22 19 7 14 28 34 47 45 18
10 33 25 33 31 0 7 3 9 6 6 8 -8 48 20 87 58 15 15 27 25 27 21 0 -3 14 6 30
21 17 14 30 32 30 39 0 7 19 18 43 25 23 6 52 15 64 19 22 9 31 -1 40 -45 4
-21 63 -118 75 -123 5 -2 6 -8 2 -13 -3 -5 0 -9 6 -9 6 0 9 -4 5 -9 -3 -6 14
-23 37 -39 26 -18 53 -49 68 -79 13 -26 27 -50 30 -53 3 -3 6 -22 6 -42 1 -21
5 -46 9 -55 24 -60 27 -595 4 -613 -4 -3 -10 -27 -13 -55 -4 -27 -9 -63 -12
-78 -8 -37 4 -119 16 -112 5 3 7 -3 5 -13 -2 -11 9 -35 24 -53 16 -19 31 -44
35 -56 4 -13 12 -23 18 -23 6 0 9 -2 6 -6 -3 -3 47 -58 111 -123 82 -82 134
-126 172 -144 30 -15 67 -40 83 -57 16 -16 36 -32 45 -35 9 -3 25 -27 36 -54
10 -28 22 -48 25 -46 9 6 12 -30 14 -152 0 -62 -2 -113 -6 -113 -5 0 -8 -17
-8 -39 0 -21 -5 -52 -11 -69 -9 -27 -8 -36 11 -62 12 -17 29 -30 39 -28 9 1
23 -2 31 -7 21 -14 1073 -7 1081 7 3 5 10 9 15 8 25 -3 92 33 103 56 16 36 14
101 -6 132 -35 57 -103 108 -130 98 -7 -3 -13 -1 -13 4 0 6 -8 10 -18 10 -10
0 -28 7 -40 16 -12 8 -22 13 -22 10 0 -3 -8 2 -19 12 -10 9 -28 24 -39 32 -61
45 -248 216 -197 180 27 -19 -11 25 -90 106 -59 60 -67 71 -107 143 -11 20
-26 43 -32 51 -16 19 -42 82 -38 93 4 14 -21 102 -39 134 -10 17 -21 46 -24
65 -3 18 -8 42 -10 53 -2 11 -4 22 -5 25 -1 3 -2 8 -1 12 0 4 -6 40 -15 80 -8
40 -15 86 -14 101 0 16 -3 26 -8 23 -5 -3 -7 16 -5 42 2 31 1 42 -6 33 -6 -9
-7 2 -4 33 3 25 2 46 -3 46 -5 0 -10 17 -10 38 -1 20 -4 52 -7 70 -4 21 -2 30
5 26 7 -5 9 8 6 40 -3 25 -1 46 4 46 5 0 8 34 7 75 -1 48 3 80 11 90 7 8 9 15
4 15 -5 0 -4 4 3 8 7 4 13 22 15 40 1 18 6 32 11 32 5 0 7 7 3 15 -3 8 -2 15
3 15 8 0 34 54 32 65 -1 3 5 13 14 21 8 9 15 21 15 28 0 7 11 23 25 36 14 13
25 27 25 31 0 4 16 23 35 42 19 19 35 33 35 31 0 -2 9 4 20 13 11 10 20 22 20
28 0 7 11 22 25 35 14 13 25 19 25 14 0 -5 18 10 40 33 42 45 83 116 73 127
-4 3 -2 6 4 6 13 0 46 78 38 90 -7 11 24 21 50 15 11 -2 24 -4 28 -4 5 -1 6
-5 2 -10 -3 -6 2 -14 11 -19 9 -5 16 -13 16 -18 1 -21 22 -53 31 -47 6 3 7 2
4 -4 -4 -5 4 -24 16 -40 25 -35 134 -143 142 -143 4 0 33 -26 65 -57 94 -94
230 -204 230 -188 0 4 12 -3 26 -14 15 -11 30 -18 35 -15 5 3 9 0 9 -7 0 -7 3
-10 6 -7 3 4 22 -5 41 -18 19 -13 39 -21 44 -18 5 3 9 1 9 -5 0 -10 38 -27 53
-23 4 1 7 -2 7 -7 0 -9 61 -33 90 -36 9 0 20 -4 26 -8 6 -4 51 -16 100 -27 48
-11 107 -29 131 -40 24 -10 43 -16 43 -13 0 3 6 1 13 -4 28 -21 107 -42 182
-47 44 -3 118 -8 165 -12 47 -3 112 -12 145 -19 36 -8 185 -18 373 -25 420
-14 805 1 912 38 8 2 24 6 35 7 11 2 54 10 95 18 41 9 98 19 125 23 28 3 54 9
59 12 8 4 63 12 104 15 6 0 12 4 12 9 0 5 5 6 11 3 10 -7 125 24 179 48 14 6
28 10 33 9 4 -1 43 9 86 23 78 26 137 30 149 10 7 -11 40 -99 47 -125 2 -8 4
-16 5 -17 4 -5 7 -22 9 -42 0 -11 8 -26 16 -34 8 -8 11 -17 8 -21 -3 -3 0 -13
7 -22 8 -8 15 -25 17 -37 14 -110 16 -146 6 -192 -3 -16 -6 -41 -7 -55 -1 -14
-5 -28 -9 -31 -4 -3 -9 -29 -10 -57 -1 -29 -5 -52 -9 -52 -14 0 -9 -185 5
-199 9 -11 9 -13 0 -7 -14 8 -18 -15 -6 -28 4 -3 6 -29 4 -56 -1 -30 2 -50 8
-50 6 0 8 -6 6 -13 -3 -7 4 -30 15 -52 16 -32 20 -59 20 -150 0 -116 -15 -184
-61 -268 -11 -20 -17 -37 -13 -37 4 0 -2 -10 -14 -23 -31 -33 -71 -116 -67
-138 2 -11 -1 -19 -7 -19 -6 0 -8 -11 -6 -25 3 -13 1 -22 -3 -19 -5 3 -8 -13
-7 -35 1 -23 6 -41 11 -41 5 0 7 -7 4 -15 -7 -17 17 -68 26 -58 4 3 7 1 7 -5
0 -7 7 -12 15 -12 9 0 18 -7 21 -15 14 -35 59 -43 267 -47 320 -5 557 -4 617
3 58 7 110 26 110 41 0 5 5 6 12 2 8 -5 9 2 5 27 -5 24 -4 30 3 19 22 -33 9
33 -15 83 -25 48 -118 146 -141 147 -16 0 -75 56 -67 63 3 4 1 7 -5 7 -7 0
-12 5 -12 10 0 11 -67 120 -79 130 -9 7 -13 26 -23 105 -10 79 -7 136 11 179
6 16 10 35 7 43 -3 7 -1 13 5 13 6 0 7 4 4 10 -3 5 -2 10 2 10 7 0 47 99 48
120 1 3 9 19 18 37 9 18 18 41 20 51 2 11 8 26 13 34 13 17 59 140 56 151 -1
4 2 7 7 7 5 0 11 8 15 18 3 9 14 29 23 44 69 105 93 149 88 158 -3 5 -1 10 5
10 5 0 18 17 27 38 9 20 28 62 42 92 14 30 25 59 23 63 -1 5 2 6 8 2 5 -3 10
-2 10 3 0 19 138 40 150 24 7 -12 130 -83 130 -75 0 3 7 0 15 -7 34 -28 175
-103 175 -93 0 5 4 3 8 -4 10 -16 142 -74 153 -67 5 3 9 1 9 -5 0 -5 10 -13
22 -17 12 -3 37 -13 57 -22 20 -9 39 -15 44 -14 4 1 7 -1 7 -6 0 -4 15 -15 33
-24 31 -16 172 -80 172 -78 0 1 35 -15 79 -35 43 -20 93 -37 112 -38 19 -1 34
-5 34 -8 0 -4 12 -9 28 -12 17 -4 43 -26 72 -64 43 -56 46 -63 62 -173 13 -92
14 -127 6 -175 -10 -58 -25 -91 -36 -81 -6 7 -61 -23 -82 -44 -27 -27 -79 -60
-95 -60 -8 0 -15 -5 -15 -12 0 -6 -3 -8 -6 -5 -4 4 -28 -5 -54 -20 -53 -30
-53 -30 -54 -177 -1 -63 3 -91 12 -94 6 -2 10 -8 6 -13 -3 -5 0 -9 7 -9 7 0 9
-3 6 -6 -8 -8 24 -64 36 -64 4 0 6 -4 2 -9 -3 -5 5 -17 17 -25 12 -9 19 -16
14 -16 -5 0 1 -9 14 -20 13 -11 20 -20 16 -20 -4 0 5 -17 21 -37 33 -46 123
-139 123 -128 0 4 8 -2 18 -14 9 -11 32 -23 50 -26 17 -3 44 -7 60 -9 65 -11
241 -18 253 -10 13 8 55 13 102 14 15 0 27 5 27 11 0 6 7 9 15 5 29 -11 141
50 199 109 l56 57 -1 64 c-1 35 -5 62 -9 59 -4 -2 -5 7 -2 22 3 17 1 24 -6 19
-6 -3 -8 1 -5 12 2 11 -7 36 -23 58 -15 21 -24 31 -21 21 4 -10 3 -16 -3 -12
-5 3 -14 24 -20 45 -6 22 -15 40 -21 40 -6 0 -8 4 -5 9 3 4 -3 24 -13 44 -20
40 -33 157 -17 157 5 0 6 3 3 7 -4 3 -2 12 4 19 6 7 11 28 12 47 1 19 6 32 11
29 5 -3 6 2 3 12 -4 9 -3 15 2 12 9 -6 44 63 40 80 -3 20 1 35 10 30 7 -5 42
108 47 149 0 6 4 18 8 27 4 9 9 23 10 31 1 8 8 22 15 31 7 9 10 16 6 16 -4 0
-2 7 5 15 7 8 10 22 6 30 -3 8 -1 15 3 15 5 0 12 7 15 16 4 10 2 13 -7 8 -9
-5 -9 -4 1 7 6 7 12 22 11 34 0 18 -1 18 -7 2 -4 -10 -7 12 -7 48 0 52 -4 69
-17 79 -10 7 -15 15 -13 18 3 3 -5 20 -18 39 -12 19 -29 49 -36 67 -7 17 -17
32 -22 32 -5 0 -8 3 -7 7 3 13 -13 53 -21 53 -4 0 -20 23 -35 50 -15 28 -37
60 -49 72 -12 11 -17 18 -11 15 6 -3 1 15 -12 41 -12 26 -27 72 -32 103 -6 30
-22 80 -35 110 -29 66 -42 129 -27 129 6 0 23 -8 38 -17 32 -21 87 -73 76 -73
-4 0 2 -10 13 -22 11 -13 27 -36 35 -53 8 -16 20 -40 26 -52 27 -52 31 -62 37
-114 4 -30 11 -61 16 -70 4 -9 6 -19 3 -22 -3 -3 2 -20 11 -38 10 -17 18 -41
20 -53 5 -42 17 -76 27 -76 5 0 6 -4 3 -10 -3 -5 -1 -10 6 -10 7 0 10 -3 6 -6
-9 -10 99 -218 132 -253 17 -18 30 -34 30 -37 0 -2 3 -19 6 -36 7 -31 13 -41
48 -79 9 -10 14 -19 11 -19 -3 0 4 -14 16 -31 12 -16 24 -28 27 -25 3 3 23
-11 44 -31 22 -20 52 -43 67 -51 15 -8 50 -41 77 -73 28 -33 60 -70 71 -84 12
-13 20 -26 18 -28 -6 -6 67 -88 75 -83 4 3 16 -7 26 -20 11 -14 35 -34 55 -45
19 -10 46 -27 60 -37 18 -13 22 -14 16 -2 -9 15 51 -35 66 -55 4 -5 8 -7 8 -4
0 4 17 -9 37 -27 20 -19 41 -34 45 -34 5 0 27 -13 49 -30 23 -16 46 -27 52
-23 5 3 7 1 3 -5 -6 -10 30 -28 47 -24 4 1 7 -3 7 -10 0 -6 3 -8 6 -5 4 3 18
-3 32 -13 13 -11 31 -20 38 -20 8 0 14 -5 14 -11 0 -5 4 -8 9 -4 5 3 12 1 16
-5 4 -6 11 -8 16 -5 5 4 9 2 9 -2 0 -5 17 -15 37 -22 20 -8 55 -27 76 -42 22
-16 43 -26 48 -23 5 3 9 1 9 -4 0 -13 96 -55 109 -48 6 4 11 3 11 -2 0 -14
111 -21 166 -11 27 5 60 18 74 29 14 12 42 28 63 37 20 9 37 20 37 25 0 5 4 7
9 4 5 -3 15 2 22 11 12 14 12 16 -1 8 -13 -8 -13 -7 -1 8 7 9 19 17 25 17 7 0
28 17 47 37 31 34 31 35 4 13 l-30 -25 29 32 c16 18 32 30 36 28 8 -5 70 78
70 93 0 5 7 13 16 16 9 4 15 9 12 12 -3 3 6 17 21 32 14 15 64 68 110 117 83
89 133 129 145 118 3 -4 6 -1 6 5 0 7 4 11 8 10 8 -3 31 20 110 106 23 26 42
44 42 41 0 -3 18 13 40 35 22 22 40 42 40 45 0 9 52 55 61 55 5 0 8 5 7 12 -2
7 2 12 7 13 6 0 31 16 55 35 25 19 54 42 64 50 11 8 32 28 48 43 15 15 28 24
28 20 1 -4 10 3 20 16 11 13 20 20 20 16 0 -3 6 0 14 7 8 7 31 24 51 38 45 31
245 227 245 241 0 5 5 9 11 9 5 0 7 4 4 10 -3 6 -2 10 2 10 10 0 49 62 45 73
-1 4 2 7 8 7 5 0 10 5 10 12 0 7 12 25 28 41 15 17 20 27 12 22 -8 -4 -4 3 10
16 14 13 19 20 10 15 -8 -5 19 23 60 63 41 40 68 69 60 65 -8 -4 -4 5 9 19 13
15 27 24 31 22 10 -6 150 144 150 161 0 8 4 14 9 14 11 0 44 50 44 67 0 7 4
13 8 13 7 0 33 60 30 73 0 4 3 7 8 7 9 0 37 60 33 73 -1 4 2 7 6 7 9 0 55 106
55 126 0 7 4 11 8 9 4 -3 12 9 18 25 5 17 7 30 3 30 -4 0 -1 4 5 8 15 10 40
89 38 119 -1 12 3 19 8 16 12 -8 0 47 -15 65 -8 9 -14 10 -25 0 -21 -17 -43
-63 -46 -98 -2 -17 -9 -36 -15 -42 -7 -7 -12 -16 -12 -20 0 -5 -11 -21 -25
-36 -14 -15 -25 -32 -25 -39 0 -7 -3 -13 -8 -13 -4 0 -25 -27 -47 -60 -22 -33
-43 -60 -47 -60 -5 0 -8 -5 -8 -11 0 -24 -183 -187 -202 -181 -5 1 -8 -2 -8
-7 0 -5 -11 -12 -25 -15 -14 -4 -25 -11 -25 -16 0 -6 -6 -10 -13 -10 -7 0 -25
-11 -40 -25 -15 -14 -27 -23 -27 -20 0 3 -15 -5 -32 -18 -18 -13 -52 -35 -75
-47 -24 -13 -43 -28 -43 -34 0 -5 -3 -7 -6 -3 -3 3 -23 -5 -43 -17 -20 -13
-61 -36 -91 -51 -30 -15 -58 -33 -62 -39 -4 -6 -8 -8 -8 -3 0 9 -96 -39 -104
-52 -3 -5 -15 -7 -26 -4 -12 3 -20 0 -20 -6 0 -7 -4 -10 -8 -7 -5 3 -33 -1
-62 -9 -63 -17 -380 -30 -380 -16 0 5 -11 12 -25 15 -30 8 -48 47 -40 86 6 29
71 95 127 129 41 25 95 86 124 141 17 32 88 115 123 144 43 35 71 71 67 83 -4
9 -1 11 6 7 7 -5 9 0 6 14 -4 12 -2 20 2 17 5 -3 8 13 7 35 -3 50 -34 78 -67
58 -11 -7 -20 -16 -20 -21 0 -4 -5 -5 -10 -2 -6 3 -13 -1 -16 -9 -3 -9 -10
-14 -14 -11 -4 3 -13 -2 -20 -10 -7 -8 -16 -13 -20 -10 -7 5 -84 -41 -110 -66
-8 -8 -19 -14 -25 -14 -5 0 -53 -10 -105 -22 -52 -12 -142 -27 -200 -33 -101
-11 -110 -10 -210 16 -58 15 -112 28 -120 29 -29 4 -65 24 -92 50 -16 14 -28
23 -28 20 0 -4 -12 8 -27 27 -16 18 -33 38 -39 43 -6 6 -25 29 -42 51 -29 38
-32 48 -32 114 0 44 -4 69 -10 65 -5 -3 -7 0 -4 8 3 8 1 18 -5 21 -6 4 -8 13
-4 21 3 8 2 23 -2 33 -4 9 -7 44 -7 77 1 45 -1 56 -9 45 -8 -11 -9 -9 -5 12 3
15 2 30 -4 33 -5 3 -10 14 -9 23 0 14 2 14 10 -3 8 -17 8 -16 3 5 -4 14 -9 88
-11 165 l-5 140 36 34 c20 19 36 41 36 48 0 7 3 13 8 13 4 0 18 22 31 49 23
47 23 51 8 75 -20 29 -10 39 40 43 59 4 175 62 215 107 27 30 37 53 19 42 -5
-4 -7 4 -3 16 3 14 2 19 -6 14 -7 -4 -12 -5 -12 -2 0 3 15 13 33 22 31 16 49
37 53 62 1 6 -2 12 -7 12 -5 0 -9 5 -9 11 0 5 3 8 8 6 4 -3 5 18 3 46 -4 46
-5 49 -12 22 l-7 -30 -1 28 c-1 21 5 30 24 37 26 10 105 86 105 101 0 5 -5 9
-11 9 -5 0 -7 5 -4 10 4 6 2 17 -4 24 -8 10 -5 18 11 32 22 19 22 19 8 0 -15
-19 -14 -19 11 -3 31 21 67 61 70 79 3 26 -1 39 -11 33 -10 -6 -14 15 -11 44
2 7 -2 10 -7 7 -5 -3 -8 6 -7 19 2 14 26 48 57 78 65 65 89 123 82 199 -3 29
-7 54 -9 56 -6 7 -66 -29 -72 -43 -3 -8 -9 -12 -14 -9 -5 3 -9 1 -9 -4 0 -4
-15 -16 -32 -25 -18 -8 -44 -25 -58 -36 -14 -11 -52 -42 -85 -68 -33 -26 -61
-51 -63 -55 -2 -4 -8 -8 -13 -8 -5 0 -27 -13 -49 -29 -43 -31 -108 -63 -215
-107 -38 -15 -82 -36 -97 -47 -16 -10 -28 -15 -28 -12 0 4 -15 -2 -34 -13 -59
-35 -242 -75 -335 -73 -30 1 -77 42 -129 112 -23 30 -64 76 -91 102 -27 26
-53 56 -56 67 -4 11 -11 20 -16 20 -6 0 -8 4 -5 9 3 4 -9 30 -26 57 -17 27
-30 50 -30 51 5 10 -12 32 -21 26 -6 -3 -7 -1 -3 5 4 6 -2 20 -13 31 -11 11
-17 21 -15 24 3 2 -13 22 -34 43 -57 58 -128 156 -143 198 -7 20 -17 36 -21
36 -4 0 -7 3 -7 8 4 22 -2 42 -11 37 -6 -4 -7 1 -3 11 4 12 3 15 -5 10 -7 -4
-10 -2 -7 6 6 16 -44 98 -58 95 -5 -1 -11 5 -12 14 -3 20 -76 119 -87 119 -4
0 -8 9 -8 19 0 11 -6 26 -13 33 -7 7 -14 17 -14 21 -2 20 -26 67 -35 67 -5 0
-6 5 -3 10 3 6 1 10 -4 10 -6 0 -11 9 -11 19 0 11 -7 26 -15 35 -9 8 -15 19
-15 23 1 4 -18 30 -42 56 -71 80 -218 228 -218 220 0 -5 -4 -3 -8 3 -4 6 -74
46 -157 88 -82 43 -166 86 -185 98 -19 11 -39 21 -45 22 -5 1 -16 5 -22 9 -7
5 -18 5 -25 1 -6 -4 -8 -3 -5 3 8 13 -39 27 -55 17 -7 -5 -8 -2 -3 6 6 10 4
12 -9 7 -9 -4 -15 -3 -11 2 3 5 -9 13 -27 17 -18 4 -40 9 -48 11 -8 3 -22 6
-30 7 -8 2 -28 8 -43 14 -15 7 -31 11 -35 10 -4 0 -28 9 -54 21 -26 12 -49 21
-50 20 -2 -1 -31 12 -64 30 -34 17 -77 33 -95 35 -19 2 -46 9 -61 15 -15 6
-42 12 -60 14 -18 3 -40 7 -48 10 -34 14 -196 69 -210 72 -8 1 -28 8 -45 14
-16 7 -37 10 -47 8 -9 -3 -18 -1 -20 3 -3 7 -34 11 -203 25 -16 2 -37 5 -45 8
-28 10 -215 26 -250 22 -152 -18 -221 -25 -257 -25 -24 0 -43 -3 -43 -7 0 -5
-17 -8 -38 -9 -20 0 -53 -7 -72 -16 -82 -36 -125 -53 -128 -50 -2 2 -13 -3
-26 -11 -12 -9 -97 -27 -187 -42 -90 -15 -171 -30 -179 -32 -8 -3 -30 -5 -47
-4 -18 2 -33 -1 -33 -6 0 -5 -19 -9 -42 -10 -55 -1 -161 -10 -218 -19 -67 -10
-363 -13 -375 -4 -10 7 -113 21 -186 25 -20 1 -40 5 -45 8 -5 2 -45 8 -89 11
-44 4 -106 12 -137 20 -32 7 -60 11 -63 8 -3 -3 -5 -1 -5 5 0 10 -82 38 -107
36 -7 0 -13 4 -13 9 0 6 -9 8 -20 5 -11 -3 -22 -1 -25 3 -19 30 -422 125 -705
165 -150 22 -196 32 -242 55 -62 31 -101 39 -221 45 -43 2 -81 6 -84 9 -9 8
-148 7 -157 -1z"/>
</g>
</svg>
