<?xml version="1.0" standalone="no"?>
<!DOCTYPE svg PUBLIC "-//W3C//DTD SVG 20010904//EN"
 "http://www.w3.org/TR/2001/REC-SVG-20010904/DTD/svg10.dtd">
<svg version="1.0" xmlns="http://www.w3.org/2000/svg"
 width="246.000000pt" height="202.000000pt" viewBox="0 0 246.000000 202.000000"
 preserveAspectRatio="xMidYMid meet">
<metadata>
Created by potrace 1.15, written by Peter Selinger 2001-2017
</metadata>
<g transform="translate(0.000000,202.000000) scale(0.100000,-0.100000)"
fill="#000000" stroke="none">
<path d="M951 1876 c-19 -23 -9 -51 20 -54 18 -2 28 3 35 18 l9 21 35 -23 c41
-27 90 -116 90 -164 0 -36 -21 -54 -60 -54 -12 0 -38 -16 -57 -35 -33 -33 -35
-39 -30 -81 3 -32 13 -55 31 -72 26 -26 26 -26 197 -26 l171 0 29 32 c43 47
41 102 -5 148 -20 20 -44 34 -58 34 -46 0 -62 21 -54 72 8 55 56 134 92 150
22 10 28 10 39 -6 17 -22 59 -18 63 7 6 30 -17 49 -52 41 -83 -17 -165 -98
-180 -177 -6 -30 -9 -32 -45 -32 -36 0 -39 2 -49 40 -15 58 -51 106 -102 136
-59 36 -103 45 -119 25z"/>
<path d="M142 1743 c-46 -18 -61 -165 -28 -277 45 -154 132 -262 258 -321 68
-32 238 -74 305 -76 15 0 -12 -9 -60 -19 -49 -10 -109 -25 -133 -34 -62 -21
-138 -79 -176 -133 -57 -84 -76 -194 -38 -228 19 -17 27 -18 90 -7 126 22 289
88 408 167 30 19 55 35 56 35 1 0 -1 -29 -5 -64 -6 -65 -30 -111 -70 -140 -26
-18 -21 -50 8 -54 48 -7 123 111 123 195 0 52 23 95 75 141 26 23 52 42 56 42
15 0 10 48 -5 53 -17 7 -72 -28 -131 -82 -91 -84 -235 -161 -400 -217 -125
-42 -172 -44 -181 -10 -14 58 45 164 121 216 86 59 263 108 457 125 43 4 80
11 83 15 7 11 -19 15 -180 29 -289 26 -450 108 -525 267 -71 147 -62 294 17
294 79 0 429 -219 644 -404 60 -51 78 -73 83 -100 4 -20 19 -45 35 -59 28 -23
33 -24 194 -23 160 1 167 2 191 25 14 13 29 39 32 58 5 27 25 49 103 114 127
106 311 234 441 308 122 69 167 86 202 78 67 -17 63 -169 -9 -310 -72 -142
-240 -223 -518 -248 -160 -14 -186 -18 -180 -28 3 -5 38 -12 77 -16 269 -25
445 -85 524 -178 38 -45 66 -112 62 -150 -3 -29 -6 -32 -40 -35 -89 -7 -396
127 -508 223 -128 109 -180 133 -180 81 0 -14 16 -31 44 -50 54 -37 96 -99 96
-144 0 -70 22 -124 70 -174 33 -34 52 -47 63 -42 25 9 20 43 -9 67 -36 28 -64
92 -64 149 l0 48 63 -41 c121 -79 300 -149 416 -165 67 -9 91 10 91 72 0 90
-61 196 -146 255 -56 38 -107 56 -219 78 l-90 17 69 8 c223 25 378 108 460
245 88 148 111 368 43 416 -66 46 -245 -19 -479 -177 -106 -71 -267 -199 -328
-262 -24 -25 -47 -46 -50 -46 -3 0 -11 9 -18 20 -11 19 -6 26 52 83 66 64 86
104 86 175 0 46 24 97 61 131 57 52 19 95 -40 45 -43 -36 -72 -95 -78 -163 -7
-71 -32 -121 -80 -160 -45 -37 -55 -38 -118 -10 -59 26 -150 22 -211 -9 l-40
-20 -46 33 c-51 37 -88 102 -88 154 0 19 -6 52 -12 74 -15 50 -88 130 -115
125 -30 -5 -27 -36 6 -67 38 -36 61 -88 61 -138 0 -58 41 -133 100 -185 46
-41 51 -48 41 -67 -7 -11 -14 -21 -18 -21 -3 0 -43 35 -88 79 -179 169 -448
345 -614 402 -51 18 -121 24 -149 12z"/>
<path d="M1138 1041 c-47 -16 -88 -45 -112 -81 -25 -38 -51 -108 -43 -116 3
-3 49 0 102 7 93 11 232 8 334 -7 l44 -7 -7 33 c-11 57 -53 118 -102 146 -36
21 -62 28 -118 30 -39 2 -83 0 -98 -5z"/>
<path d="M1055 708 c-38 -5 -74 -13 -79 -18 -5 -5 -1 -50 9 -105 l17 -97 87 9
c108 10 154 10 263 0 l86 -9 12 58 c7 31 13 77 14 103 l1 45 -80 12 c-94 15
-232 15 -330 2z"/>
<path d="M1103 343 c-24 -2 -43 -9 -43 -14 0 -35 83 -140 131 -165 36 -18 62
-8 115 46 40 40 83 115 72 125 -7 8 -224 14 -275 8z"/>
</g>
</svg>
