<svg xmlns="http://www.w3.org/2000/svg" version="1.0" width="616.000000" height="459.000000" preserveAspectRatio="xMidYMid meet"><rect id="backgroundrect" width="100%" height="100%" x="0" y="0" fill="none" stroke="none"/>
<metadata>
Created by potrace 1.15, written by Peter Selinger 2001-2017
</metadata>

<g class="currentLayer" style=""><title>Layer 1</title><g transform="translate(0,459) scale(0.10000000149011612,-0.10000000149011612) " fill="#ffffff" stroke="none" id="svg_1" class="selected" fill-opacity="1">
<path d="M5672 4433 c-38 -7 -160 -133 -168 -172 -8 -39 -33 -52 -158 -82 -44 -10 -121 -30 -171 -43 -91 -25 -279 -44 -508 -51 -62 -2 -200 -7 -307 -11 -246 -8 -240 -7 -240 -11 0 -2 43 -44 95 -94 95 -91 161 -184 225 -314 24 -49 30 -75 31 -131 2 -128 -47 -169 -127 -106 -72 57 -150 222 -180 381 -23 123 -60 160 -63 61 -1 -49 -34 -166 -52 -185 -5 -5 -9 -18 -9 -30 0 -28 -85 -143 -116 -157 -23 -11 -28 -9 -43 11 -18 24 -36 120 -46 246 -10 120 -43 230 -75 250 -27 17 -176 -86 -324 -224 -172 -160 -177 -167 -170 -198 11 -41 4 -150 -15 -273 -5 -36 -10 -95 -10 -131 0 -41 -9 -92 -22 -133 -22 -66 -39 -85 -39 -43 -1 12 -9 45 -19 72 -10 28 -35 97 -55 155 -26 73 -46 113 -66 132 -29 27 -33 27 -132 24 -120 -3 -147 -14 -207 -82 -28 -32 -41 -57 -42 -78 -3 -90 -12 -84 -77 47 -61 124 -105 190 -166 254 -36 38 -40 39 -84 15 -62 -33 -81 -120 -57 -257 4 -22 8 -56 10 -75 6 -82 17 -157 27 -190 15 -46 14 -382 -1 -435 -6 -22 -20 -55 -31 -72 -16 -27 -26 -33 -52 -33 -18 0 -40 6 -49 13 -31 23 -96 174 -124 287 -9 36 -25 90 -35 120 -11 30 -22 78 -26 107 -4 30 -14 59 -24 68 -17 15 -19 15 -29 -3 -5 -10 -17 -52 -26 -93 -42 -197 -68 -259 -110 -259 -32 0 -39 14 -37 80 1 45 -2 61 -18 75 -22 20 -24 16 -33 -40 -17 -101 -40 -211 -49 -234 -6 -14 -11 -29 -10 -33 3 -15 -18 -59 -27 -54 -10 7 -36 -22 -45 -50 -9 -29 -37 -53 -141 -118 l-90 -57 -8 38 c-5 21 -36 146 -69 278 -103 414 -129 562 -135 773 l-5 183 30 87 c61 172 104 360 105 454 1 93 -9 118 -47 118 -35 0 -51 -20 -80 -100 -39 -106 -53 -210 -54 -391 -1 -174 12 -124 -112 -444 -45 -116 -73 -178 -151 -340 -51 -106 -203 -324 -244 -351 -43 -28 -73 -12 -104 59 -74 162 -87 208 -221 750 -39 157 -47 325 -24 486 17 116 38 167 84 203 30 24 30 25 12 41 -19 17 -21 17 -51 -9 -69 -58 -92 -149 -97 -389 -3 -145 -1 -168 22 -245 13 -47 30 -117 38 -155 27 -136 108 -431 142 -520 73 -191 97 -230 158 -262 26 -13 32 -13 65 2 36 16 58 43 185 228 63 93 195 376 267 574 18 51 34 91 36 90 1 -1 3 -43 4 -92 2 -113 52 -379 124 -665 66 -260 95 -384 95 -410 0 -10 -19 -46 -42 -79 -41 -60 -41 -61 -46 -168 -3 -93 0 -130 28 -263 40 -194 139 -473 235 -661 51 -100 136 -313 189 -479 45 -139 90 -249 128 -311 15 -25 34 -62 43 -82 17 -41 60 -76 76 -60 5 5 10 46 10 90 1 81 0 84 -114 370 -123 308 -161 426 -256 788 -33 127 -80 302 -104 390 -24 88 -57 218 -72 290 l-27 129 25 21 c14 11 56 38 93 60 38 22 87 58 110 80 23 22 47 40 53 41 31 3 29 -1 45 84 3 14 12 43 19 65 8 22 17 63 20 90 3 28 6 52 6 53 1 2 15 -8 32 -22 67 -57 124 -16 155 110 9 38 22 89 29 114 l11 45 26 -85 c15 -47 29 -100 33 -118 18 -87 89 -232 143 -290 38 -41 43 -43 84 -38 23 3 46 5 49 5 12 2 51 93 58 139 11 68 6 358 -7 407 -10 39 -21 112 -27 190 -2 22 -7 63 -11 90 -12 84 -11 139 3 162 7 12 13 29 13 36 0 17 42 47 64 47 23 0 73 -68 113 -150 19 -41 39 -82 44 -90 5 -8 26 -46 45 -85 63 -122 82 -151 93 -139 3 3 7 34 7 70 2 88 9 108 51 155 54 60 81 70 185 71 103 1 96 6 134 -102 14 -41 32 -87 40 -102 8 -15 19 -52 25 -83 12 -66 35 -112 67 -133 21 -14 23 -13 46 39 31 70 35 95 41 209 3 52 9 120 14 150 9 59 10 63 10 184 l1 79 130 125 c72 68 147 136 168 150 110 77 135 92 147 92 14 0 30 -79 40 -190 3 -36 11 -100 17 -143 11 -71 16 -82 58 -129 64 -72 85 -66 175 55 19 26 35 54 35 63 0 8 5 25 12 37 6 12 19 43 28 69 l17 48 13 -42 c35 -111 92 -210 164 -285 68 -71 75 -76 116 -77 39 -1 45 2 64 34 32 54 27 152 -12 232 -54 110 -131 225 -195 291 -34 36 -74 77 -89 93 l-27 29 27 1 c106 4 463 15 487 16 17 0 122 6 235 14 149 11 228 21 290 38 47 13 110 29 140 35 68 15 161 42 176 53 7 5 14 23 18 41 4 22 28 52 78 101 70 66 74 68 115 63 47 -5 53 1 25 26 -18 16 -42 19 -90 10z m-4439 -353 c-2 -25 -13 -81 -25 -125 -11 -44 -29 -116 -40 -160 -11 -44 -23 -83 -27 -87 -10 -12 -4 172 9 242 6 36 22 92 35 125 12 33 26 69 30 80 7 19 8 18 15 -5 4 -14 5 -45 3 -70z m132 -2002 c12 -57 50 -202 83 -323 33 -121 77 -285 97 -365 68 -270 123 -435 241 -730 117 -294 117 -295 115 -374 0 -44 -3 -81 -5 -83 -10 -10 -130 258 -167 372 -56 175 -137 382 -193 493 -104 207 -195 465 -236 668 -29 140 -32 172 -27 262 5 90 9 109 34 147 15 24 29 42 31 40 3 -2 14 -50 27 -107z" id="svg_2" fill="#ffffff" fill-opacity="1"/>
</g></g></svg>