<svg xmlns="http://www.w3.org/2000/svg" version="1.0" width="616.000000" height="459.000000" preserveAspectRatio="xMidYMid meet" style=""><rect id="backgroundrect" width="100%" height="100%" x="0" y="0" fill="none" stroke="none"/>
<metadata>
Created by potrace 1.15, written by Peter Selinger 2001-2017
</metadata>

<g class="currentLayer" style=""><title>Layer 1</title><g transform="translate(0,459) scale(0.10000000149011612,-0.10000000149011612) " fill="#ffffff" stroke="none" id="svg_1" class="selected" fill-opacity="1">
<path d="M3030.121659003709,2200.1836375857065 c-18.309024169056922,-2.896342198347014 -77.09062808023968,-55.03050176859325 -80.94515948425165,-71.16726544509807 c-3.8545314040119836,-16.136763676504795 -15.899942041549433,-21.515684902006388 -76.1269952292367,-33.9285800377793 c-21.19992272206591,-4.137631711924305 -58.29978748568128,-12.412895135772915 -82.39060876075617,-17.791816361274517 c-43.84529472063632,-10.344079279810762 -134.42678271491792,-18.20557953246694 -244.76274415476098,-21.10192173081396 c-29.872618381092874,-0.8275263423848612 -96.36328510029959,-2.896342198347014 -147.9176426289599,-4.5513948831167355 c-118.52684067336853,-3.3101053695394445 -115.63594212035949,-2.896342198347014 -115.63594212035949,-4.5513948831167355 c0,-0.8275263423848612 20.718106296564414,-18.20557953246694 45.77256042264231,-38.89373809208848 c45.77256042264231,-37.652448578511176 77.57244450574117,-76.13242349940721 108.408695737837,-129.92163575442322 c11.563594212035952,-20.27439538842909 14.454492765044936,-31.032237839432284 14.936309190546437,-54.2029754262084 c0.9636328510029959,-52.96168591263111 -22.645371998570404,-69.92597593152074 -61.190686038690245,-43.858896146397626 c-34.690782636107855,23.584500757968538 -72.27246382522469,91.8554240047196 -86.72695659026962,157.64376822431603 c-11.08177778653445,50.892870056668954 -28.908985530089872,66.2021073907889 -30.354434806594362,25.239553442738266 c-0.4818164255014982,-20.27439538842909 -16.38175846705093,-68.68468641794344 -25.05445412607789,-76.54618667059965 c-2.4090821275074896,-2.0688158559621534 -4.336347829513482,-7.4477370814637505 -4.336347829513482,-12.412895135772915 c0,-11.585368793388053 -40.95439616762732,-59.168133480517554 -55.890705358173754,-64.96081787721161 c-11.08177778653445,-4.5513948831167355 -13.490859914041943,-3.7238685407318752 -20.718106296564414,4.5513948831167355 c-8.672695659026964,9.930316108618335 -17.345391318053927,49.65158054309166 -22.1635555730689,101.78574011333791 c-4.81816425501498,49.65158054309166 -20.718106296564414,95.16552937425901 -36.136231912612345,103.44079279810767 c-13.009043488540446,7.033973910271322 -84.79969088826364,-35.583632722549034 -156.10852186248536,-92.68295034710445 c-82.87242518625766,-66.2021073907889 -85.28150731376516,-69.0984495891359 -81.90879233525465,-81.92510789610124 c5.299980680516479,-16.964290018889653 1.9272657020059918,-62.06447567886457 -7.227246382522468,-112.95734573553355 c-2.4090821275074896,-14.895474162927501 -4.81816425501498,-39.3075012632809 -4.81816425501498,-54.2029754262084 c0,-16.964290018889653 -4.336347829513482,-38.066211749703605 -10.599961361032957,-55.03050176859325 c-10.599961361032957,-27.308369298700413 -18.79084059455842,-35.1698695513566 -18.79084059455842,-17.791816361274517 c-0.4818164255014982,4.965158054309168 -4.336347829513482,18.619342703659377 -9.154512084528461,29.790948325855002 c-4.81816425501498,11.585368793388053 -16.863574892552425,40.13502760566577 -26.499903402582387,64.13329153482674 c-12.527227063038945,30.20471149704743 -22.1635555730689,46.75523834474464 -31.799884083098867,54.616738597400825 c-13.972676339543439,11.171605622195626 -15.899942041549433,11.171605622195626 -63.599768166197734,9.930316108618335 c-57.817971060179744,-1.2412895135772923 -70.82701454872021,-5.7926843966940265 -99.73600007881006,-33.9285800377793 c-13.490859914041943,-13.240421478157778 -19.754473445561416,-23.584500757968538 -20.23628987106291,-32.27352735300959 c-1.4454492765044946,-37.238685407318755 -5.781797106017975,-34.75610638016417 -37.09986476361534,19.44686904604424 c-29.390801955591385,51.30663322786139 -50.590724677657285,78.6150025265618 -79.98152663324868,105.09584548287735 c-17.345391318053927,15.723000505312363 -19.27265702005992,16.136763676504795 -40.47257974212582,6.206447567886458 c-29.872618381092874,-13.654184649350206 -39.02713046562134,-49.65158054309166 -27.463536253585385,-106.33713499645467 c1.9272657020059918,-9.10278976623347 3.8545314040119836,-23.170737586776106 4.81816425501498,-31.032237839432284 c2.8908985530089875,-33.9285800377793 8.190879233525465,-64.96081787721161 13.009043488540446,-78.6150025265618 c7.227246382522468,-19.033105874851802 6.745429957020971,-158.05753139550848 -0.4818164255014982,-179.98697946870732 c-2.8908985530089875,-9.10278976623347 -9.63632851002996,-22.75697441558368 -14.936309190546437,-29.790948325855002 c-7.709062808023967,-11.171605622195626 -12.527227063038945,-13.654184649350206 -25.05445412607789,-13.654184649350206 c-8.672695659026964,0 -19.27265702005992,2.4825790271545842 -23.6090048495734,5.378921225501597 c-14.936309190546437,9.516552937425901 -46.25437684814381,71.9947917874829 -59.74523676218575,118.75003013222758 c-4.336347829513482,14.895474162927501 -12.045410637537449,37.238685407318755 -16.863574892552425,49.65158054309166 c-5.299980680516479,12.412895135772915 -10.599961361032957,32.27352735300959 -12.527227063038945,44.27265931759007 c-1.9272657020059918,12.412895135772915 -6.745429957020971,24.412027100353406 -11.563594212035952,28.135895641085288 c-8.190879233525465,6.206447567886458 -9.154512084528461,6.206447567886458 -13.972676339543439,-1.2412895135772923 c-2.4090821275074896,-4.137631711924305 -8.190879233525465,-21.515684902006388 -12.527227063038945,-38.47997492089605 c-20.23628987106291,-81.51134472490881 -32.76351693410186,-107.16466133883954 -52.99980680516477,-107.16466133883954 c-15.418125616047934,0 -18.79084059455842,5.7926843966940265 -17.827207743555423,33.10105369539445 c0.4818164255014982,18.619342703659377 -0.9636328510029959,25.239553442738266 -8.672695659026964,31.032237839432284 c-10.599961361032957,8.275263423848612 -11.563594212035952,6.620210739078889 -15.899942041549433,-16.550526847697224 c-8.190879233525465,-41.79008029043549 -19.27265702005992,-87.30402912160284 -23.6090048495734,-96.82058205902878 c-2.8908985530089875,-5.7926843966940265 -5.299980680516479,-11.999131964580485 -4.81816425501498,-13.654184649350206 c1.4454492765044946,-6.206447567886458 -8.672695659026964,-24.412027100353406 -13.009043488540446,-22.343211244391252 c-4.81816425501498,2.896342198347014 -17.345391318053927,-9.10278976623347 -21.681739147567406,-20.688158559621524 c-4.336347829513482,-11.999131964580485 -17.827207743555423,-21.929448073198813 -67.9361159957112,-48.82405420070681 l-43.36347829513481,-23.584500757968538 l-3.8545314040119836,15.723000505312363 c-2.4090821275074896,8.689026595041042 -17.345391318053927,60.40942299409486 -33.245333359603364,115.0261615914957 c-49.62709182665429,171.29795287366622 -62.154318889693236,232.534902210146 -65.04521744270222,319.8389313317488 l-2.4090821275074896,75.71866032821477 l14.454492765044936,35.99739589374145 c29.390801955591385,71.16726544509807 50.10890825215578,148.95474162927502 50.590724677657285,187.84847972136345 c0.4818164255014982,38.47997492089605 -4.336347829513482,48.82405420070681 -22.645371998570404,48.82405420070681 c-16.863574892552425,0 -24.572637700576397,-8.275263423848612 -38.54531404011984,-41.37631711924305 c-18.79084059455842,-43.858896146397626 -25.536270551579396,-86.8902659504104 -26.01808697708089,-161.78139993624035 c-0.4818164255014982,-71.9947917874829 5.781797106017975,-51.30663322786139 -53.96343965616777,-183.7108480094392 c-21.681739147567406,-47.99652785832194 -35.172599061609354,-73.64984447225264 -72.7542802507262,-140.6794782054264 c-24.572637700576397,-43.858896146397626 -97.80873437680408,-134.0592674663475 -117.56320782236554,-145.23087308854312 c-20.718106296564414,-11.585368793388053 -35.172599061609354,-4.965158054309168 -50.10890825215578,24.412027100353406 c-35.654415487110846,67.02963373317375 -41.91802901863033,86.06273960802555 -106.48143003583105,310.3223783943229 c-18.79084059455842,64.96081787721161 -22.645371998570404,134.47303063753992 -11.563594212035952,201.0889011995212 c8.190879233525465,47.99652785832194 18.309024169056922,69.0984495891359 40.47257974212582,83.99392375206341 c14.454492765044936,9.930316108618335 14.454492765044936,10.344079279810762 5.781797106017975,16.964290018889653 c-9.154512084528461,7.033973910271322 -10.118144935531458,7.033973910271322 -24.572637700576397,-3.7238685407318752 c-33.245333359603364,-23.99826392916097 -44.3271111461378,-61.65071250767215 -46.7361932736453,-160.95387359385543 c-1.4454492765044946,-59.99565982290244 -0.4818164255014982,-69.51221276032834 10.599961361032957,-101.37197694214547 c6.263613531519474,-19.44686904604424 14.454492765044936,-48.41029102951439 18.309024169056922,-64.13329153482674 c13.009043488540446,-56.271791282170575 52.03617395416178,-178.33192678393755 68.41793242121271,-215.15684902006385 c35.172599061609354,-79.02876569775424 46.7361932736453,-95.16552937425901 76.1269952292367,-108.4059508524168 c12.527227063038945,-5.378921225501597 15.418125616047934,-5.378921225501597 31.318067657597364,0.8275263423848612 c17.345391318053927,6.620210739078889 27.945352679086877,17.791816361274517 89.13603871777711,94.33800303187415 c30.354434806594362,38.47997492089605 93.95420297279212,155.57495236835393 128.64498560889996,237.50006026445516 c8.672695659026964,21.10192173081396 16.38175846705093,37.652448578511176 17.345391318053927,37.238685407318755 c0.4818164255014982,-0.41376317119243095 1.4454492765044946,-17.791816361274517 1.9272657020059918,-38.066211749703605 c0.9636328510029959,-46.75523834474464 25.05445412607789,-156.8162418819312 59.74523676218575,-275.1525088429663 c31.799884083098867,-107.57842451003192 45.77256042264231,-158.88505773789336 45.77256042264231,-169.64290018889653 c0,-4.137631711924305 -9.154512084528461,-19.033105874851802 -20.23628987106291,-32.687290524202005 c-19.754473445561416,-24.82579027154583 -19.754473445561416,-25.239553442738266 -22.1635555730689,-69.51221276032834 c-1.4454492765044946,-38.47997492089605 0,-53.78921225501596 13.490859914041943,-108.8197140236092 c19.27265702005992,-80.27005521133154 66.97248314470825,-195.70997997401972 113.22685999285206,-273.4974561581966 c24.572637700576397,-41.37631711924305 65.52703386820372,-129.50787258323075 91.06330441978311,-198.1925590011742 c21.681739147567406,-57.51308079574785 43.36347829513481,-103.0270296269152 61.67250246419174,-128.68034624084592 c7.227246382522468,-10.344079279810762 16.38175846705093,-25.653316613930695 20.718106296564414,-33.9285800377793 c8.190879233525465,-16.964290018889653 28.908985530089872,-31.446001010624727 36.618048338113844,-24.82579027154583 c2.4090821275074896,2.0688158559621534 4.81816425501498,19.033105874851802 4.81816425501498,37.238685407318755 c0.4818164255014982,33.51481686658688 0,34.75610638016417 -54.92707250717077,153.0923733411993 c-59.26342033668426,127.43905672726864 -77.57244450574117,176.26311092797536 -123.34500492838347,326.04537889963524 c-15.899942041549433,52.547922741438676 -38.54531404011984,124.95647770011398 -50.10890825215578,161.36763676504788 c-11.563594212035952,36.41115906493388 -27.463536253585385,90.20037131994988 -34.690782636107855,119.99131964580488 l-13.009043488540446,53.375449083823554 l12.045410637537449,8.689026595041042 c6.745429957020971,4.5513948831167355 26.981719828083886,15.723000505312363 44.808927571639316,24.82579027154583 c18.309024169056922,9.10278976623347 41.91802901863033,23.99826392916097 52.99980680516477,33.10105369539445 c11.08177778653445,9.10278976623347 22.645371998570404,16.550526847697224 25.536270551579396,16.964290018889653 c14.936309190546437,1.2412895135772923 13.972676339543439,-0.41376317119243095 21.681739147567406,34.75610638016417 c1.4454492765044946,5.7926843966940265 5.781797106017975,17.791816361274517 9.154512084528461,26.89460612750798 c3.8545314040119836,9.10278976623347 8.190879233525465,26.067079785123124 9.63632851002996,37.238685407318755 c1.4454492765044946,11.585368793388053 2.8908985530089875,21.515684902006388 2.8908985530089875,21.929448073198813 c0.4818164255014982,0.8275263423848612 7.227246382522468,-3.3101053695394445 15.418125616047934,-9.10278976623347 c32.28170050860037,-23.584500757968538 59.74523676218575,-6.620210739078889 74.68154595273218,45.51394883116736 c4.336347829513482,15.723000505312363 10.599961361032957,36.82492223612632 13.972676339543439,47.169001515937076 l5.299980680516479,18.619342703659377 l12.527227063038945,-35.1698695513566 c7.227246382522468,-19.44686904604424 13.972676339543439,-41.37631711924305 15.899942041549433,-48.82405420070681 c8.672695659026964,-35.99739589374145 42.881661869633305,-95.99305571664388 68.89974884671422,-119.99131964580488 c18.309024169056922,-16.964290018889653 20.718106296564414,-17.791816361274517 40.47257974212582,-15.723000505312363 c11.08177778653445,1.2412895135772923 22.1635555730689,2.0688158559621534 23.6090048495734,2.0688158559621534 c5.781797106017975,0.8275263423848612 24.572637700576397,38.47997492089605 27.945352679086877,57.51308079574785 c5.299980680516479,28.135895641085288 2.8908985530089875,148.1272152868901 -3.3727149785104866,168.40161067531926 c-4.81816425501498,16.136763676504795 -10.118144935531458,46.34147517355221 -13.009043488540446,78.6150025265618 c-0.9636328510029959,9.10278976623347 -3.3727149785104866,26.067079785123124 -5.299980680516479,37.238685407318755 c-5.781797106017975,34.75610638016417 -5.299980680516479,57.51308079574785 1.4454492765044946,67.02963373317375 c3.3727149785104866,4.965158054309168 6.263613531519474,11.999131964580485 6.263613531519474,14.895474162927501 c0,7.033973910271322 20.23628987106291,19.44686904604424 30.836251232095876,19.44686904604424 c11.08177778653445,0 35.172599061609354,-28.135895641085288 54.44525608166928,-62.06447567886457 c9.154512084528461,-16.964290018889653 18.79084059455842,-33.9285800377793 21.19992272206591,-37.238685407318755 c2.4090821275074896,-3.3101053695394445 12.527227063038945,-19.033105874851802 21.681739147567406,-35.1698695513566 c30.354434806594362,-50.47910688547653 39.50894689112283,-62.47823885005699 44.808927571639316,-57.51308079574785 c1.4454492765044946,1.2412895135772923 3.3727149785104866,14.067947820542644 3.3727149785104866,28.963421983470145 c0.9636328510029959,36.41115906493388 4.336347829513482,44.68642248878251 24.572637700576397,64.13329153482674 c26.01808697708089,24.82579027154583 39.02713046562134,28.963421983470145 89.13603871777711,29.377185154662566 c49.62709182665429,0.41376317119243095 46.25437684814381,2.4825790271545842 64.56340101720073,-42.20384346162791 c6.745429957020971,-16.964290018889653 15.418125616047934,-35.99739589374145 19.27265702005992,-42.20384346162791 c3.8545314040119836,-6.206447567886458 9.154512084528461,-21.515684902006388 12.045410637537449,-34.34234320897172 c5.781797106017975,-27.308369298700413 16.863574892552425,-46.34147517355221 32.28170050860037,-55.03050176859325 c10.118144935531458,-5.7926843966940265 11.08177778653445,-5.378921225501597 22.1635555730689,16.136763676504795 c14.936309190546437,28.963421983470145 16.863574892552425,39.3075012632809 19.754473445561416,86.47650277921798 c1.4454492765044946,21.515684902006388 4.336347829513482,49.65158054309166 6.745429957020971,62.06447567886457 c4.336347829513482,24.412027100353406 4.81816425501498,26.067079785123124 4.81816425501498,76.13242349940721 l0.4818164255014982,32.687290524202005 l62.63613531519473,51.72039639905383 c34.690782636107855,28.135895641085288 70.82701454872021,56.271791282170575 80.94515948425165,62.06447567886457 c52.99980680516477,31.85976418181716 65.04521744270222,38.066211749703605 70.82701454872021,38.066211749703605 c6.745429957020971,0 14.454492765044936,-32.687290524202005 19.27265702005992,-78.6150025265618 c1.4454492765044946,-14.895474162927501 5.299980680516479,-41.37631711924305 8.190879233525465,-59.168133480517554 c5.299980680516479,-29.377185154662566 7.709062808023967,-33.9285800377793 27.945352679086877,-53.375449083823554 c30.836251232095876,-29.790948325855002 40.95439616762732,-27.308369298700413 84.31787446276213,22.75697441558368 c9.154512084528461,10.757842451003194 16.863574892552425,22.343211244391252 16.863574892552425,26.067079785123124 c0,3.3101053695394445 2.4090821275074896,10.344079279810762 5.781797106017975,15.30923733411993 c2.8908985530089875,4.965158054309168 9.154512084528461,17.791816361274517 13.490859914041943,28.549658812277713 l8.190879233525465,19.86063221723667 l6.263613531519474,-17.378053190082085 c16.863574892552425,-45.9277120023598 44.3271111461378,-86.8902659504104 79.01789378224566,-117.92250378984271 c32.76351693410186,-29.377185154662566 36.136231912612345,-31.446001010624727 55.890705358173754,-31.85976418181716 c18.79084059455842,-0.41376317119243095 21.681739147567406,0.8275263423848612 30.836251232095876,14.067947820542644 c15.418125616047934,22.343211244391252 13.009043488540446,62.89200202124944 -5.781797106017975,95.99305571664388 c-26.01808697708089,45.51394883116736 -63.11795174069621,93.09671351829688 -93.95420297279212,120.40508281699728 c-16.38175846705093,14.895474162927501 -35.654415487110846,31.85976418181716 -42.881661869633305,38.47997492089605 l-13.009043488540446,11.999131964580485 l13.009043488540446,0.41376317119243095 c51.07254110315879,1.6550526847697224 223.08100500719354,6.206447567886458 234.64459921922952,6.620210739078889 c8.190879233525465,0 58.78160391118277,2.4825790271545842 113.22685999285206,5.7926843966940265 c71.7906473997232,4.5513948831167355 109.85414501434154,8.689026595041042 139.7267633954344,15.723000505312363 c22.645371998570404,5.378921225501597 52.99980680516477,11.999131964580485 67.4542995702097,14.481710991735072 c32.76351693410186,6.206447567886458 77.57244450574117,17.378053190082085 84.79969088826364,21.929448073198813 c3.3727149785104866,2.0688158559621534 6.745429957020971,9.516552937425901 8.672695659026964,16.964290018889653 c1.9272657020059918,9.10278976623347 13.490859914041943,21.515684902006388 37.58168118911684,41.79008029043549 c33.72714978510485,27.308369298700413 35.654415487110846,28.135895641085288 55.408888932672255,26.067079785123124 c22.645371998570404,-2.0688158559621534 25.536270551579396,0.41376317119243095 12.045410637537449,10.757842451003194 c-8.672695659026964,6.620210739078889 -20.23628987106291,7.86150025265618 -43.36347829513481,4.137631711924305 zm-2138.783112801149,-146.05839943092803 c-0.9636328510029959,-10.344079279810762 -6.263613531519474,-33.51481686658688 -12.045410637537449,-51.72039639905383 c-5.299980680516479,-18.20557953246694 -13.972676339543439,-47.99652785832194 -19.27265702005992,-66.2021073907889 c-5.299980680516479,-18.20557953246694 -11.08177778653445,-34.34234320897172 -13.009043488540446,-35.99739589374145 c-4.81816425501498,-4.965158054309168 -1.9272657020059918,71.16726544509807 4.336347829513482,100.13068742856821 c2.8908985530089875,14.895474162927501 10.599961361032957,38.066211749703605 16.863574892552425,51.72039639905383 c5.781797106017975,13.654184649350206 12.527227063038945,28.549658812277713 14.454492765044936,33.10105369539445 c3.3727149785104866,7.86150025265618 3.8545314040119836,7.4477370814637505 7.227246382522468,-2.0688158559621534 c1.9272657020059918,-5.7926843966940265 2.4090821275074896,-18.619342703659377 1.4454492765044946,-28.963421983470145 zm63.599768166197734,-828.353868727246 c5.781797106017975,-23.584500757968538 24.090821275074898,-83.58016058087098 39.99076331662434,-133.64550429515506 c15.899942041549433,-50.065343714284104 37.09986476361534,-117.92250378984271 46.7361932736453,-151.02355748523715 c32.76351693410186,-111.71605622195625 59.26342033668426,-179.98697946870732 116.117758545861,-302.0471149704743 c56.37252178367525,-121.6463723305746 56.37252178367525,-122.06013550176702 55.408888932672255,-154.74742602596905 c0,-18.20557953246694 -1.4454492765044946,-33.51481686658688 -2.4090821275074896,-34.34234320897172 c-4.81816425501498,-4.137631711924305 -62.63613531519473,106.75089816764711 -80.46334305875016,153.9198996835842 c-26.981719828083886,72.40855495867535 -66.00885029370524,158.05753139550848 -92.9905701217891,203.98524339786826 c-50.10890825215578,85.64897643683311 -93.95420297279212,192.3998746044802 -113.70867641835352,276.3937983565436 c-13.972676339543439,57.92684396694029 -15.418125616047934,71.16726544509807 -13.009043488540446,108.4059508524168 c2.4090821275074896,37.238685407318755 4.336347829513482,45.10018565997494 16.38175846705093,60.8231861652873 c7.227246382522468,9.930316108618335 13.972676339543439,17.378053190082085 14.936309190546437,16.550526847697224 c1.4454492765044946,-0.8275263423848612 6.745429957020971,-20.688158559621524 13.009043488540446,-44.27265931759007 z" id="svg_2" fill="#ffffff" fill-opacity="1"/>
</g></g></svg>